<svg xmlns="http://www.w3.org/2000/svg" viewBox="0 0 400 300" width="400" height="300">
  <defs>
    <linearGradient id="bg41" x1="0%" y1="0%" x2="0%" y2="100%"><stop offset="0%" stop-color="#BF360C" stop-opacity="1"/><stop offset="60%" stop-color="#D84315" stop-opacity="1"/><stop offset="60%" stop-color="#4E342E" stop-opacity="1"/><stop offset="100%" stop-color="#3E2723" stop-opacity="1"/></linearGradient>
  </defs>
  <rect x="0" y="0" width="400" height="300" fill="url(#bg41)" rx="0" ry="0" stroke="none" stroke-width="1"/>
  <rect x="0" y="210" width="400" height="90" fill="#3E2723" rx="0" ry="0" stroke="none" stroke-width="1"/>
  <polygon points="180,190 168,190 180,160" fill="#FF6D00" stroke="none" stroke-width="1"/>
  <polygon points="180,190 192,190 180,165" fill="#FFD600" stroke="none" stroke-width="1"/>
  <polygon points="220,175 208,175 220,145" fill="#FF6D00" stroke="none" stroke-width="1"/>
  <polygon points="220,175 232,175 220,150" fill="#FFD600" stroke="none" stroke-width="1"/>
  <polygon points="260,185 248,185 260,155" fill="#FF6D00" stroke="none" stroke-width="1"/>
  <polygon points="260,185 272,185 260,160" fill="#FFD600" stroke="none" stroke-width="1"/>
  <polygon points="300,180 288,180 300,150" fill="#FF6D00" stroke="none" stroke-width="1"/>
  <polygon points="300,180 312,180 300,155" fill="#FFD600" stroke="none" stroke-width="1"/>
  <polygon points="80.0,140.0 120.0,120 160.0,130.0 150.0,160.0 80.0,160.0" fill="#C62828" stroke="none" stroke-width="1"/>
<circle cx="75.0" cy="140.0" r="18.0" fill="#C62828" stroke="none" stroke-width="1"/>
<circle cx="68.0" cy="135.0" r="5.0" fill="#FF8F00" stroke="none" stroke-width="1"/>
<polygon points="100.0,120 130.0,90.0 150.0,125.0 120.0,125.0" fill="#C62828" stroke="none" stroke-width="1" opacity="0.8"/>
<polygon points="150.0,145.0 180.0,130.0 170.0,155.0" fill="#C62828" stroke="none" stroke-width="1"/>
  <rect x="303.7" y="173.0" width="12.6" height="12.6" fill="#FFD700" rx="1.8" ry="0" stroke="none" stroke-width="1"/>
<circle cx="310" cy="174.8" r="1.8" fill="#000" stroke="none" stroke-width="1" opacity="0.4"/>
<rect x="306.4" y="185.6" width="7.2" height="5.4" fill="#FFD700" rx="0" ry="0" stroke="none" stroke-width="1"/>
<rect x="301.0" y="191.0" width="18.0" height="16.2" fill="#E53935" rx="1.8" ry="0" stroke="none" stroke-width="1"/>
<rect x="293.8" y="191.0" width="7.2" height="12.6" fill="#E53935" rx="1.8" ry="0" stroke="none" stroke-width="1"/>
<rect x="319.0" y="191.0" width="7.2" height="12.6" fill="#E53935" rx="1.8" ry="0" stroke="none" stroke-width="1"/>
<rect x="301.0" y="207.2" width="8.1" height="12.6" fill="#3A3A3A" rx="1.8" ry="0" stroke="none" stroke-width="1"/>
<rect x="310.9" y="207.2" width="8.1" height="12.6" fill="#3A3A3A" rx="1.8" ry="0" stroke="none" stroke-width="1"/>
  <text x="200" y="100" font-size="12" fill="#FF8A65" font-weight="900" text-anchor="middle" font-family="Arial,sans-serif">FIRE FANG DRAGON</text>
  <circle cx="16.666666666666668" cy="12" r="5" fill="#fff" stroke="none" stroke-width="1" opacity="0.12"/><circle cx="50.0" cy="12" r="5" fill="#fff" stroke="none" stroke-width="1" opacity="0.12"/><circle cx="83.33333333333334" cy="12" r="5" fill="#fff" stroke="none" stroke-width="1" opacity="0.12"/><circle cx="116.66666666666667" cy="12" r="5" fill="#fff" stroke="none" stroke-width="1" opacity="0.12"/><circle cx="150.0" cy="12" r="5" fill="#fff" stroke="none" stroke-width="1" opacity="0.12"/><circle cx="183.33333333333334" cy="12" r="5" fill="#fff" stroke="none" stroke-width="1" opacity="0.12"/><circle cx="216.66666666666666" cy="12" r="5" fill="#fff" stroke="none" stroke-width="1" opacity="0.12"/><circle cx="250.0" cy="12" r="5" fill="#fff" stroke="none" stroke-width="1" opacity="0.12"/><circle cx="283.33333333333337" cy="12" r="5" fill="#fff" stroke="none" stroke-width="1" opacity="0.12"/><circle cx="316.6666666666667" cy="12" r="5" fill="#fff" stroke="none" stroke-width="1" opacity="0.12"/><circle cx="350.00000000000006" cy="12" r="5" fill="#fff" stroke="none" stroke-width="1" opacity="0.12"/><circle cx="383.33333333333337" cy="12" r="5" fill="#fff" stroke="none" stroke-width="1" opacity="0.12"/>
  <rect x="0" y="0" width="100" height="24" fill="#BF360C" rx="0" ry="0" stroke="none" stroke-width="1"/><text x="50" y="17" font-size="10" fill="#fff" font-weight="900" text-anchor="middle" font-family="Arial,sans-serif">NINJAGO</text>
  <rect x="0" y="240" width="400" height="60" fill="#FFD700" rx="0" ry="0" stroke="none" stroke-width="1"/>
<rect x="0" y="240" width="70" height="60" fill="#E3000B" rx="0" ry="0" stroke="none" stroke-width="1"/>
<text x="35" y="276" font-size="11" fill="#fff" font-weight="900" text-anchor="middle" font-family="Arial,sans-serif">LEGO®</text>
<text x="225" y="265" font-size="13" fill="#000" font-weight="bold" text-anchor="middle" font-family="Arial,sans-serif">Ninjago Fire Dragon</text>
<rect x="310" y="246" width="82" height="22" fill="#fff" rx="4" ry="0" stroke="none" stroke-width="1"/>
<text x="351" y="262" font-size="10" fill="#333" font-weight="bold" text-anchor="middle" font-family="Arial,sans-serif">🧱 463 pcs</text>
<rect x="310" y="272" width="82" height="22" fill="#333" rx="4" ry="0" stroke="none" stroke-width="1"/>
<text x="351" y="288" font-size="10" fill="#FFD700" font-weight="bold" text-anchor="middle" font-family="Arial,sans-serif">Age 8++</text>
</svg>