<svg xmlns="http://www.w3.org/2000/svg" viewBox="0 0 400 300" width="400" height="300">
  <defs>
    <linearGradient id="bg27" x1="0%" y1="0%" x2="0%" y2="100%"><stop offset="0%" stop-color="#0D47A1" stop-opacity="1"/><stop offset="50%" stop-color="#1565C0" stop-opacity="1"/><stop offset="50%" stop-color="#263238" stop-opacity="1"/><stop offset="100%" stop-color="#37474F" stop-opacity="1"/></linearGradient>
  </defs>
  <rect x="0" y="0" width="400" height="300" fill="url(#bg27)" rx="0" ry="0" stroke="none" stroke-width="1"/>
  <path d="M 0,155 Q 100,150 200,155 Q 300,160 400,155" fill="none" stroke="#1976D2" stroke-width="1" opacity="0.5"/>
  <path d="M 0,163 Q 100,158 200,163 Q 300,168 400,163" fill="none" stroke="#1976D2" stroke-width="1" opacity="0.5"/>
  <path d="M 0,170 Q 100,165 200,170 Q 300,175 400,170" fill="none" stroke="#1976D2" stroke-width="1" opacity="0.5"/>
  <polygon points="20,150 40,190 360,190 380,150 340,130 60,130" fill="#1A237E" stroke="none" stroke-width="1"/>
  <polygon points="20,150 40,190 360,190 380,150 340,130 60,130" fill="none" stroke="#333" stroke-width="1"/>
  <rect x="60" y="105" width="280" height="30" fill="#ECEFF1" rx="3" ry="0" stroke="none" stroke-width="1"/>
  <rect x="90" y="80" width="220" height="30" fill="#CFD8DC" rx="3" ry="0" stroke="none" stroke-width="1"/>
  <rect x="120" y="58" width="160" height="28" fill="#B0BEC5" rx="3" ry="0" stroke="none" stroke-width="1"/>
  <rect x="150" y="36" width="24" height="28" fill="#D32F2F" rx="3" ry="0" stroke="none" stroke-width="1"/>
  <rect x="152" y="30" width="20" height="10" fill="#333" rx="2" ry="0" stroke="none" stroke-width="1"/>
  <rect x="190" y="36" width="24" height="28" fill="#D32F2F" rx="3" ry="0" stroke="none" stroke-width="1"/>
  <rect x="192" y="30" width="20" height="10" fill="#333" rx="2" ry="0" stroke="none" stroke-width="1"/>
  <rect x="230" y="36" width="24" height="28" fill="#D32F2F" rx="3" ry="0" stroke="none" stroke-width="1"/>
  <rect x="232" y="30" width="20" height="10" fill="#333" rx="2" ry="0" stroke="none" stroke-width="1"/>
  <rect x="270" y="36" width="24" height="28" fill="#D32F2F" rx="3" ry="0" stroke="none" stroke-width="1"/>
  <rect x="272" y="30" width="20" height="10" fill="#333" rx="2" ry="0" stroke="none" stroke-width="1"/>
  <text x="200" y="250" font-size="14" fill="#90CAF9" font-weight="900" text-anchor="middle" font-family="Arial,sans-serif">RMS TITANIC</text>
  <circle cx="16.666666666666668" cy="12" r="5" fill="#fff" stroke="none" stroke-width="1" opacity="0.12"/><circle cx="50.0" cy="12" r="5" fill="#fff" stroke="none" stroke-width="1" opacity="0.12"/><circle cx="83.33333333333334" cy="12" r="5" fill="#fff" stroke="none" stroke-width="1" opacity="0.12"/><circle cx="116.66666666666667" cy="12" r="5" fill="#fff" stroke="none" stroke-width="1" opacity="0.12"/><circle cx="150.0" cy="12" r="5" fill="#fff" stroke="none" stroke-width="1" opacity="0.12"/><circle cx="183.33333333333334" cy="12" r="5" fill="#fff" stroke="none" stroke-width="1" opacity="0.12"/><circle cx="216.66666666666666" cy="12" r="5" fill="#fff" stroke="none" stroke-width="1" opacity="0.12"/><circle cx="250.0" cy="12" r="5" fill="#fff" stroke="none" stroke-width="1" opacity="0.12"/><circle cx="283.33333333333337" cy="12" r="5" fill="#fff" stroke="none" stroke-width="1" opacity="0.12"/><circle cx="316.6666666666667" cy="12" r="5" fill="#fff" stroke="none" stroke-width="1" opacity="0.12"/><circle cx="350.00000000000006" cy="12" r="5" fill="#fff" stroke="none" stroke-width="1" opacity="0.12"/><circle cx="383.33333333333337" cy="12" r="5" fill="#fff" stroke="none" stroke-width="1" opacity="0.12"/>
  <rect x="0" y="0" width="100" height="24" fill="#0D47A1" rx="0" ry="0" stroke="none" stroke-width="1"/><text x="50" y="17" font-size="10" fill="#fff" font-weight="900" text-anchor="middle" font-family="Arial,sans-serif">IDEAS</text>
  <rect x="0" y="240" width="400" height="60" fill="#FFD700" rx="0" ry="0" stroke="none" stroke-width="1"/>
<rect x="0" y="240" width="70" height="60" fill="#E3000B" rx="0" ry="0" stroke="none" stroke-width="1"/>
<text x="35" y="276" font-size="11" fill="#fff" font-weight="900" text-anchor="middle" font-family="Arial,sans-serif">LEGO®</text>
<text x="225" y="265" font-size="13" fill="#000" font-weight="bold" text-anchor="middle" font-family="Arial,sans-serif">Ideas Titanic</text>
<rect x="310" y="246" width="82" height="22" fill="#fff" rx="4" ry="0" stroke="none" stroke-width="1"/>
<text x="351" y="262" font-size="10" fill="#333" font-weight="bold" text-anchor="middle" font-family="Arial,sans-serif">🧱 3890 pcs</text>
<rect x="310" y="272" width="82" height="22" fill="#333" rx="4" ry="0" stroke="none" stroke-width="1"/>
<text x="351" y="288" font-size="10" fill="#FFD700" font-weight="bold" text-anchor="middle" font-family="Arial,sans-serif">Age 18++</text>
</svg>