<svg xmlns="http://www.w3.org/2000/svg" viewBox="0 0 400 300" width="400" height="300">
  <defs>
    <linearGradient id="bgA" x1="0%" y1="0%" x2="0%" y2="100%"><stop offset="0%" stop-color="#B71C1C" stop-opacity="1"/><stop offset="100%" stop-color="#880E4F" stop-opacity="1"/></linearGradient>
  </defs>
  <rect x="0" y="0" width="400" height="300" fill="url(#bgA)" rx="0" ry="0" stroke="none" stroke-width="1"/>
  <circle cx="20" cy="20" r="3" fill="#FFF" stroke="none" stroke-width="1" opacity="0.07"/>
<circle cx="38" cy="20" r="3" fill="#FFF" stroke="none" stroke-width="1" opacity="0.07"/>
<circle cx="56" cy="20" r="3" fill="#FFF" stroke="none" stroke-width="1" opacity="0.07"/>
<circle cx="74" cy="20" r="3" fill="#FFF" stroke="none" stroke-width="1" opacity="0.07"/>
<circle cx="92" cy="20" r="3" fill="#FFF" stroke="none" stroke-width="1" opacity="0.07"/>
<circle cx="110" cy="20" r="3" fill="#FFF" stroke="none" stroke-width="1" opacity="0.07"/>
<circle cx="128" cy="20" r="3" fill="#FFF" stroke="none" stroke-width="1" opacity="0.07"/>
<circle cx="146" cy="20" r="3" fill="#FFF" stroke="none" stroke-width="1" opacity="0.07"/>
<circle cx="164" cy="20" r="3" fill="#FFF" stroke="none" stroke-width="1" opacity="0.07"/>
<circle cx="182" cy="20" r="3" fill="#FFF" stroke="none" stroke-width="1" opacity="0.07"/>
<circle cx="200" cy="20" r="3" fill="#FFF" stroke="none" stroke-width="1" opacity="0.07"/>
<circle cx="218" cy="20" r="3" fill="#FFF" stroke="none" stroke-width="1" opacity="0.07"/>
<circle cx="236" cy="20" r="3" fill="#FFF" stroke="none" stroke-width="1" opacity="0.07"/>
<circle cx="254" cy="20" r="3" fill="#FFF" stroke="none" stroke-width="1" opacity="0.07"/>
<circle cx="272" cy="20" r="3" fill="#FFF" stroke="none" stroke-width="1" opacity="0.07"/>
<circle cx="290" cy="20" r="3" fill="#FFF" stroke="none" stroke-width="1" opacity="0.07"/>
<circle cx="308" cy="20" r="3" fill="#FFF" stroke="none" stroke-width="1" opacity="0.07"/>
<circle cx="326" cy="20" r="3" fill="#FFF" stroke="none" stroke-width="1" opacity="0.07"/>
<circle cx="344" cy="20" r="3" fill="#FFF" stroke="none" stroke-width="1" opacity="0.07"/>
<circle cx="362" cy="20" r="3" fill="#FFF" stroke="none" stroke-width="1" opacity="0.07"/>
<circle cx="20" cy="38" r="3" fill="#FFF" stroke="none" stroke-width="1" opacity="0.07"/>
<circle cx="38" cy="38" r="3" fill="#FFF" stroke="none" stroke-width="1" opacity="0.07"/>
<circle cx="56" cy="38" r="3" fill="#FFF" stroke="none" stroke-width="1" opacity="0.07"/>
<circle cx="74" cy="38" r="3" fill="#FFF" stroke="none" stroke-width="1" opacity="0.07"/>
<circle cx="92" cy="38" r="3" fill="#FFF" stroke="none" stroke-width="1" opacity="0.07"/>
<circle cx="110" cy="38" r="3" fill="#FFF" stroke="none" stroke-width="1" opacity="0.07"/>
<circle cx="128" cy="38" r="3" fill="#FFF" stroke="none" stroke-width="1" opacity="0.07"/>
<circle cx="146" cy="38" r="3" fill="#FFF" stroke="none" stroke-width="1" opacity="0.07"/>
<circle cx="164" cy="38" r="3" fill="#FFF" stroke="none" stroke-width="1" opacity="0.07"/>
<circle cx="182" cy="38" r="3" fill="#FFF" stroke="none" stroke-width="1" opacity="0.07"/>
<circle cx="200" cy="38" r="3" fill="#FFF" stroke="none" stroke-width="1" opacity="0.07"/>
<circle cx="218" cy="38" r="3" fill="#FFF" stroke="none" stroke-width="1" opacity="0.07"/>
<circle cx="236" cy="38" r="3" fill="#FFF" stroke="none" stroke-width="1" opacity="0.07"/>
<circle cx="254" cy="38" r="3" fill="#FFF" stroke="none" stroke-width="1" opacity="0.07"/>
<circle cx="272" cy="38" r="3" fill="#FFF" stroke="none" stroke-width="1" opacity="0.07"/>
<circle cx="290" cy="38" r="3" fill="#FFF" stroke="none" stroke-width="1" opacity="0.07"/>
<circle cx="308" cy="38" r="3" fill="#FFF" stroke="none" stroke-width="1" opacity="0.07"/>
<circle cx="326" cy="38" r="3" fill="#FFF" stroke="none" stroke-width="1" opacity="0.07"/>
<circle cx="344" cy="38" r="3" fill="#FFF" stroke="none" stroke-width="1" opacity="0.07"/>
<circle cx="362" cy="38" r="3" fill="#FFF" stroke="none" stroke-width="1" opacity="0.07"/>
<circle cx="20" cy="56" r="3" fill="#FFF" stroke="none" stroke-width="1" opacity="0.07"/>
<circle cx="38" cy="56" r="3" fill="#FFF" stroke="none" stroke-width="1" opacity="0.07"/>
<circle cx="56" cy="56" r="3" fill="#FFF" stroke="none" stroke-width="1" opacity="0.07"/>
<circle cx="74" cy="56" r="3" fill="#FFF" stroke="none" stroke-width="1" opacity="0.07"/>
<circle cx="92" cy="56" r="3" fill="#FFF" stroke="none" stroke-width="1" opacity="0.07"/>
<circle cx="110" cy="56" r="3" fill="#FFF" stroke="none" stroke-width="1" opacity="0.07"/>
<circle cx="128" cy="56" r="3" fill="#FFF" stroke="none" stroke-width="1" opacity="0.07"/>
<circle cx="146" cy="56" r="3" fill="#FFF" stroke="none" stroke-width="1" opacity="0.07"/>
<circle cx="164" cy="56" r="3" fill="#FFF" stroke="none" stroke-width="1" opacity="0.07"/>
<circle cx="182" cy="56" r="3" fill="#FFF" stroke="none" stroke-width="1" opacity="0.07"/>
<circle cx="200" cy="56" r="3" fill="#FFF" stroke="none" stroke-width="1" opacity="0.07"/>
<circle cx="218" cy="56" r="3" fill="#FFF" stroke="none" stroke-width="1" opacity="0.07"/>
<circle cx="236" cy="56" r="3" fill="#FFF" stroke="none" stroke-width="1" opacity="0.07"/>
<circle cx="254" cy="56" r="3" fill="#FFF" stroke="none" stroke-width="1" opacity="0.07"/>
<circle cx="272" cy="56" r="3" fill="#FFF" stroke="none" stroke-width="1" opacity="0.07"/>
<circle cx="290" cy="56" r="3" fill="#FFF" stroke="none" stroke-width="1" opacity="0.07"/>
<circle cx="308" cy="56" r="3" fill="#FFF" stroke="none" stroke-width="1" opacity="0.07"/>
<circle cx="326" cy="56" r="3" fill="#FFF" stroke="none" stroke-width="1" opacity="0.07"/>
<circle cx="344" cy="56" r="3" fill="#FFF" stroke="none" stroke-width="1" opacity="0.07"/>
<circle cx="362" cy="56" r="3" fill="#FFF" stroke="none" stroke-width="1" opacity="0.07"/>
<circle cx="20" cy="74" r="3" fill="#FFF" stroke="none" stroke-width="1" opacity="0.07"/>
<circle cx="38" cy="74" r="3" fill="#FFF" stroke="none" stroke-width="1" opacity="0.07"/>
<circle cx="56" cy="74" r="3" fill="#FFF" stroke="none" stroke-width="1" opacity="0.07"/>
<circle cx="74" cy="74" r="3" fill="#FFF" stroke="none" stroke-width="1" opacity="0.07"/>
<circle cx="92" cy="74" r="3" fill="#FFF" stroke="none" stroke-width="1" opacity="0.07"/>
<circle cx="110" cy="74" r="3" fill="#FFF" stroke="none" stroke-width="1" opacity="0.07"/>
<circle cx="128" cy="74" r="3" fill="#FFF" stroke="none" stroke-width="1" opacity="0.07"/>
<circle cx="146" cy="74" r="3" fill="#FFF" stroke="none" stroke-width="1" opacity="0.07"/>
<circle cx="164" cy="74" r="3" fill="#FFF" stroke="none" stroke-width="1" opacity="0.07"/>
<circle cx="182" cy="74" r="3" fill="#FFF" stroke="none" stroke-width="1" opacity="0.07"/>
<circle cx="200" cy="74" r="3" fill="#FFF" stroke="none" stroke-width="1" opacity="0.07"/>
<circle cx="218" cy="74" r="3" fill="#FFF" stroke="none" stroke-width="1" opacity="0.07"/>
<circle cx="236" cy="74" r="3" fill="#FFF" stroke="none" stroke-width="1" opacity="0.07"/>
<circle cx="254" cy="74" r="3" fill="#FFF" stroke="none" stroke-width="1" opacity="0.07"/>
<circle cx="272" cy="74" r="3" fill="#FFF" stroke="none" stroke-width="1" opacity="0.07"/>
<circle cx="290" cy="74" r="3" fill="#FFF" stroke="none" stroke-width="1" opacity="0.07"/>
<circle cx="308" cy="74" r="3" fill="#FFF" stroke="none" stroke-width="1" opacity="0.07"/>
<circle cx="326" cy="74" r="3" fill="#FFF" stroke="none" stroke-width="1" opacity="0.07"/>
<circle cx="344" cy="74" r="3" fill="#FFF" stroke="none" stroke-width="1" opacity="0.07"/>
<circle cx="362" cy="74" r="3" fill="#FFF" stroke="none" stroke-width="1" opacity="0.07"/>
<circle cx="20" cy="92" r="3" fill="#FFF" stroke="none" stroke-width="1" opacity="0.07"/>
<circle cx="38" cy="92" r="3" fill="#FFF" stroke="none" stroke-width="1" opacity="0.07"/>
<circle cx="56" cy="92" r="3" fill="#FFF" stroke="none" stroke-width="1" opacity="0.07"/>
<circle cx="74" cy="92" r="3" fill="#FFF" stroke="none" stroke-width="1" opacity="0.07"/>
<circle cx="92" cy="92" r="3" fill="#FFF" stroke="none" stroke-width="1" opacity="0.07"/>
<circle cx="110" cy="92" r="3" fill="#FFF" stroke="none" stroke-width="1" opacity="0.07"/>
<circle cx="128" cy="92" r="3" fill="#FFF" stroke="none" stroke-width="1" opacity="0.07"/>
<circle cx="146" cy="92" r="3" fill="#FFF" stroke="none" stroke-width="1" opacity="0.07"/>
<circle cx="164" cy="92" r="3" fill="#FFF" stroke="none" stroke-width="1" opacity="0.07"/>
<circle cx="182" cy="92" r="3" fill="#FFF" stroke="none" stroke-width="1" opacity="0.07"/>
<circle cx="200" cy="92" r="3" fill="#FFF" stroke="none" stroke-width="1" opacity="0.07"/>
<circle cx="218" cy="92" r="3" fill="#FFF" stroke="none" stroke-width="1" opacity="0.07"/>
<circle cx="236" cy="92" r="3" fill="#FFF" stroke="none" stroke-width="1" opacity="0.07"/>
<circle cx="254" cy="92" r="3" fill="#FFF" stroke="none" stroke-width="1" opacity="0.07"/>
<circle cx="272" cy="92" r="3" fill="#FFF" stroke="none" stroke-width="1" opacity="0.07"/>
<circle cx="290" cy="92" r="3" fill="#FFF" stroke="none" stroke-width="1" opacity="0.07"/>
<circle cx="308" cy="92" r="3" fill="#FFF" stroke="none" stroke-width="1" opacity="0.07"/>
<circle cx="326" cy="92" r="3" fill="#FFF" stroke="none" stroke-width="1" opacity="0.07"/>
<circle cx="344" cy="92" r="3" fill="#FFF" stroke="none" stroke-width="1" opacity="0.07"/>
<circle cx="362" cy="92" r="3" fill="#FFF" stroke="none" stroke-width="1" opacity="0.07"/>
<circle cx="20" cy="110" r="3" fill="#FFF" stroke="none" stroke-width="1" opacity="0.07"/>
<circle cx="38" cy="110" r="3" fill="#FFF" stroke="none" stroke-width="1" opacity="0.07"/>
<circle cx="56" cy="110" r="3" fill="#FFF" stroke="none" stroke-width="1" opacity="0.07"/>
<circle cx="74" cy="110" r="3" fill="#FFF" stroke="none" stroke-width="1" opacity="0.07"/>
<circle cx="92" cy="110" r="3" fill="#FFF" stroke="none" stroke-width="1" opacity="0.07"/>
<circle cx="110" cy="110" r="3" fill="#FFF" stroke="none" stroke-width="1" opacity="0.07"/>
<circle cx="128" cy="110" r="3" fill="#FFF" stroke="none" stroke-width="1" opacity="0.07"/>
<circle cx="146" cy="110" r="3" fill="#FFF" stroke="none" stroke-width="1" opacity="0.07"/>
<circle cx="164" cy="110" r="3" fill="#FFF" stroke="none" stroke-width="1" opacity="0.07"/>
<circle cx="182" cy="110" r="3" fill="#FFF" stroke="none" stroke-width="1" opacity="0.07"/>
<circle cx="200" cy="110" r="3" fill="#FFF" stroke="none" stroke-width="1" opacity="0.07"/>
<circle cx="218" cy="110" r="3" fill="#FFF" stroke="none" stroke-width="1" opacity="0.07"/>
<circle cx="236" cy="110" r="3" fill="#FFF" stroke="none" stroke-width="1" opacity="0.07"/>
<circle cx="254" cy="110" r="3" fill="#FFF" stroke="none" stroke-width="1" opacity="0.07"/>
<circle cx="272" cy="110" r="3" fill="#FFF" stroke="none" stroke-width="1" opacity="0.07"/>
<circle cx="290" cy="110" r="3" fill="#FFF" stroke="none" stroke-width="1" opacity="0.07"/>
<circle cx="308" cy="110" r="3" fill="#FFF" stroke="none" stroke-width="1" opacity="0.07"/>
<circle cx="326" cy="110" r="3" fill="#FFF" stroke="none" stroke-width="1" opacity="0.07"/>
<circle cx="344" cy="110" r="3" fill="#FFF" stroke="none" stroke-width="1" opacity="0.07"/>
<circle cx="362" cy="110" r="3" fill="#FFF" stroke="none" stroke-width="1" opacity="0.07"/>
<circle cx="20" cy="128" r="3" fill="#FFF" stroke="none" stroke-width="1" opacity="0.07"/>
<circle cx="38" cy="128" r="3" fill="#FFF" stroke="none" stroke-width="1" opacity="0.07"/>
<circle cx="56" cy="128" r="3" fill="#FFF" stroke="none" stroke-width="1" opacity="0.07"/>
<circle cx="74" cy="128" r="3" fill="#FFF" stroke="none" stroke-width="1" opacity="0.07"/>
<circle cx="92" cy="128" r="3" fill="#FFF" stroke="none" stroke-width="1" opacity="0.07"/>
<circle cx="110" cy="128" r="3" fill="#FFF" stroke="none" stroke-width="1" opacity="0.07"/>
<circle cx="128" cy="128" r="3" fill="#FFF" stroke="none" stroke-width="1" opacity="0.07"/>
<circle cx="146" cy="128" r="3" fill="#FFF" stroke="none" stroke-width="1" opacity="0.07"/>
<circle cx="164" cy="128" r="3" fill="#FFF" stroke="none" stroke-width="1" opacity="0.07"/>
<circle cx="182" cy="128" r="3" fill="#FFF" stroke="none" stroke-width="1" opacity="0.07"/>
<circle cx="200" cy="128" r="3" fill="#FFF" stroke="none" stroke-width="1" opacity="0.07"/>
<circle cx="218" cy="128" r="3" fill="#FFF" stroke="none" stroke-width="1" opacity="0.07"/>
<circle cx="236" cy="128" r="3" fill="#FFF" stroke="none" stroke-width="1" opacity="0.07"/>
<circle cx="254" cy="128" r="3" fill="#FFF" stroke="none" stroke-width="1" opacity="0.07"/>
<circle cx="272" cy="128" r="3" fill="#FFF" stroke="none" stroke-width="1" opacity="0.07"/>
<circle cx="290" cy="128" r="3" fill="#FFF" stroke="none" stroke-width="1" opacity="0.07"/>
<circle cx="308" cy="128" r="3" fill="#FFF" stroke="none" stroke-width="1" opacity="0.07"/>
<circle cx="326" cy="128" r="3" fill="#FFF" stroke="none" stroke-width="1" opacity="0.07"/>
<circle cx="344" cy="128" r="3" fill="#FFF" stroke="none" stroke-width="1" opacity="0.07"/>
<circle cx="362" cy="128" r="3" fill="#FFF" stroke="none" stroke-width="1" opacity="0.07"/>
<circle cx="20" cy="146" r="3" fill="#FFF" stroke="none" stroke-width="1" opacity="0.07"/>
<circle cx="38" cy="146" r="3" fill="#FFF" stroke="none" stroke-width="1" opacity="0.07"/>
<circle cx="56" cy="146" r="3" fill="#FFF" stroke="none" stroke-width="1" opacity="0.07"/>
<circle cx="74" cy="146" r="3" fill="#FFF" stroke="none" stroke-width="1" opacity="0.07"/>
<circle cx="92" cy="146" r="3" fill="#FFF" stroke="none" stroke-width="1" opacity="0.07"/>
<circle cx="110" cy="146" r="3" fill="#FFF" stroke="none" stroke-width="1" opacity="0.07"/>
<circle cx="128" cy="146" r="3" fill="#FFF" stroke="none" stroke-width="1" opacity="0.07"/>
<circle cx="146" cy="146" r="3" fill="#FFF" stroke="none" stroke-width="1" opacity="0.07"/>
<circle cx="164" cy="146" r="3" fill="#FFF" stroke="none" stroke-width="1" opacity="0.07"/>
<circle cx="182" cy="146" r="3" fill="#FFF" stroke="none" stroke-width="1" opacity="0.07"/>
<circle cx="200" cy="146" r="3" fill="#FFF" stroke="none" stroke-width="1" opacity="0.07"/>
<circle cx="218" cy="146" r="3" fill="#FFF" stroke="none" stroke-width="1" opacity="0.07"/>
<circle cx="236" cy="146" r="3" fill="#FFF" stroke="none" stroke-width="1" opacity="0.07"/>
<circle cx="254" cy="146" r="3" fill="#FFF" stroke="none" stroke-width="1" opacity="0.07"/>
<circle cx="272" cy="146" r="3" fill="#FFF" stroke="none" stroke-width="1" opacity="0.07"/>
<circle cx="290" cy="146" r="3" fill="#FFF" stroke="none" stroke-width="1" opacity="0.07"/>
<circle cx="308" cy="146" r="3" fill="#FFF" stroke="none" stroke-width="1" opacity="0.07"/>
<circle cx="326" cy="146" r="3" fill="#FFF" stroke="none" stroke-width="1" opacity="0.07"/>
<circle cx="344" cy="146" r="3" fill="#FFF" stroke="none" stroke-width="1" opacity="0.07"/>
<circle cx="362" cy="146" r="3" fill="#FFF" stroke="none" stroke-width="1" opacity="0.07"/>
<circle cx="20" cy="164" r="3" fill="#FFF" stroke="none" stroke-width="1" opacity="0.07"/>
<circle cx="38" cy="164" r="3" fill="#FFF" stroke="none" stroke-width="1" opacity="0.07"/>
<circle cx="56" cy="164" r="3" fill="#FFF" stroke="none" stroke-width="1" opacity="0.07"/>
<circle cx="74" cy="164" r="3" fill="#FFF" stroke="none" stroke-width="1" opacity="0.07"/>
<circle cx="92" cy="164" r="3" fill="#FFF" stroke="none" stroke-width="1" opacity="0.07"/>
<circle cx="110" cy="164" r="3" fill="#FFF" stroke="none" stroke-width="1" opacity="0.07"/>
<circle cx="128" cy="164" r="3" fill="#FFF" stroke="none" stroke-width="1" opacity="0.07"/>
<circle cx="146" cy="164" r="3" fill="#FFF" stroke="none" stroke-width="1" opacity="0.07"/>
<circle cx="164" cy="164" r="3" fill="#FFF" stroke="none" stroke-width="1" opacity="0.07"/>
<circle cx="182" cy="164" r="3" fill="#FFF" stroke="none" stroke-width="1" opacity="0.07"/>
<circle cx="200" cy="164" r="3" fill="#FFF" stroke="none" stroke-width="1" opacity="0.07"/>
<circle cx="218" cy="164" r="3" fill="#FFF" stroke="none" stroke-width="1" opacity="0.07"/>
<circle cx="236" cy="164" r="3" fill="#FFF" stroke="none" stroke-width="1" opacity="0.07"/>
<circle cx="254" cy="164" r="3" fill="#FFF" stroke="none" stroke-width="1" opacity="0.07"/>
<circle cx="272" cy="164" r="3" fill="#FFF" stroke="none" stroke-width="1" opacity="0.07"/>
<circle cx="290" cy="164" r="3" fill="#FFF" stroke="none" stroke-width="1" opacity="0.07"/>
<circle cx="308" cy="164" r="3" fill="#FFF" stroke="none" stroke-width="1" opacity="0.07"/>
<circle cx="326" cy="164" r="3" fill="#FFF" stroke="none" stroke-width="1" opacity="0.07"/>
<circle cx="344" cy="164" r="3" fill="#FFF" stroke="none" stroke-width="1" opacity="0.07"/>
<circle cx="362" cy="164" r="3" fill="#FFF" stroke="none" stroke-width="1" opacity="0.07"/>
<circle cx="20" cy="182" r="3" fill="#FFF" stroke="none" stroke-width="1" opacity="0.07"/>
<circle cx="38" cy="182" r="3" fill="#FFF" stroke="none" stroke-width="1" opacity="0.07"/>
<circle cx="56" cy="182" r="3" fill="#FFF" stroke="none" stroke-width="1" opacity="0.07"/>
<circle cx="74" cy="182" r="3" fill="#FFF" stroke="none" stroke-width="1" opacity="0.07"/>
<circle cx="92" cy="182" r="3" fill="#FFF" stroke="none" stroke-width="1" opacity="0.07"/>
<circle cx="110" cy="182" r="3" fill="#FFF" stroke="none" stroke-width="1" opacity="0.07"/>
<circle cx="128" cy="182" r="3" fill="#FFF" stroke="none" stroke-width="1" opacity="0.07"/>
<circle cx="146" cy="182" r="3" fill="#FFF" stroke="none" stroke-width="1" opacity="0.07"/>
<circle cx="164" cy="182" r="3" fill="#FFF" stroke="none" stroke-width="1" opacity="0.07"/>
<circle cx="182" cy="182" r="3" fill="#FFF" stroke="none" stroke-width="1" opacity="0.07"/>
<circle cx="200" cy="182" r="3" fill="#FFF" stroke="none" stroke-width="1" opacity="0.07"/>
<circle cx="218" cy="182" r="3" fill="#FFF" stroke="none" stroke-width="1" opacity="0.07"/>
<circle cx="236" cy="182" r="3" fill="#FFF" stroke="none" stroke-width="1" opacity="0.07"/>
<circle cx="254" cy="182" r="3" fill="#FFF" stroke="none" stroke-width="1" opacity="0.07"/>
<circle cx="272" cy="182" r="3" fill="#FFF" stroke="none" stroke-width="1" opacity="0.07"/>
<circle cx="290" cy="182" r="3" fill="#FFF" stroke="none" stroke-width="1" opacity="0.07"/>
<circle cx="308" cy="182" r="3" fill="#FFF" stroke="none" stroke-width="1" opacity="0.07"/>
<circle cx="326" cy="182" r="3" fill="#FFF" stroke="none" stroke-width="1" opacity="0.07"/>
<circle cx="344" cy="182" r="3" fill="#FFF" stroke="none" stroke-width="1" opacity="0.07"/>
<circle cx="362" cy="182" r="3" fill="#FFF" stroke="none" stroke-width="1" opacity="0.07"/>
  <path d="M 80,200 L 140,150 L 240,150 L 300,200" fill="none" stroke="#CC0000" stroke-width="12"/>
  <path d="M 140,150 L 190,120 L 240,150" fill="none" stroke="#AA0000" stroke-width="8"/>
  <circle cx="100" cy="210" r="45" fill="#222" stroke="none" stroke-width="1"/>
  <circle cx="100" cy="210" r="30" fill="#444" stroke="none" stroke-width="1"/>
  <circle cx="100" cy="210" r="12" fill="#888" stroke="none" stroke-width="1"/>
  <circle cx="280" cy="210" r="45" fill="#222" stroke="none" stroke-width="1"/>
  <circle cx="280" cy="210" r="30" fill="#444" stroke="none" stroke-width="1"/>
  <circle cx="280" cy="210" r="12" fill="#888" stroke="none" stroke-width="1"/>
  <rect x="155" y="140" width="90" height="25" fill="#CC0000" rx="5" ry="0" stroke="none" stroke-width="1"/>
  <rect x="155" y="135" width="40" height="15" fill="#888" rx="3" ry="0" stroke="none" stroke-width="1"/>
  <text x="195" y="100" font-size="11" fill="#FF8A80" font-weight="900" text-anchor="middle" font-family="Arial,sans-serif">DUCATI PANIGALE V4R</text>
  <circle cx="16.666666666666668" cy="12" r="5" fill="#fff" stroke="none" stroke-width="1" opacity="0.12"/><circle cx="50.0" cy="12" r="5" fill="#fff" stroke="none" stroke-width="1" opacity="0.12"/><circle cx="83.33333333333334" cy="12" r="5" fill="#fff" stroke="none" stroke-width="1" opacity="0.12"/><circle cx="116.66666666666667" cy="12" r="5" fill="#fff" stroke="none" stroke-width="1" opacity="0.12"/><circle cx="150.0" cy="12" r="5" fill="#fff" stroke="none" stroke-width="1" opacity="0.12"/><circle cx="183.33333333333334" cy="12" r="5" fill="#fff" stroke="none" stroke-width="1" opacity="0.12"/><circle cx="216.66666666666666" cy="12" r="5" fill="#fff" stroke="none" stroke-width="1" opacity="0.12"/><circle cx="250.0" cy="12" r="5" fill="#fff" stroke="none" stroke-width="1" opacity="0.12"/><circle cx="283.33333333333337" cy="12" r="5" fill="#fff" stroke="none" stroke-width="1" opacity="0.12"/><circle cx="316.6666666666667" cy="12" r="5" fill="#fff" stroke="none" stroke-width="1" opacity="0.12"/><circle cx="350.00000000000006" cy="12" r="5" fill="#fff" stroke="none" stroke-width="1" opacity="0.12"/><circle cx="383.33333333333337" cy="12" r="5" fill="#fff" stroke="none" stroke-width="1" opacity="0.12"/>
  <rect x="0" y="0" width="100" height="24" fill="#B71C1C" rx="0" ry="0" stroke="none" stroke-width="1"/><text x="50" y="17" font-size="10" fill="#fff" font-weight="900" text-anchor="middle" font-family="Arial,sans-serif">TECHNIC</text>
  <rect x="0" y="240" width="400" height="60" fill="#FFD700" rx="0" ry="0" stroke="none" stroke-width="1"/>
<rect x="0" y="240" width="70" height="60" fill="#E3000B" rx="0" ry="0" stroke="none" stroke-width="1"/>
<text x="35" y="276" font-size="11" fill="#fff" font-weight="900" text-anchor="middle" font-family="Arial,sans-serif">LEGO®</text>
<text x="225" y="265" font-size="13" fill="#000" font-weight="bold" text-anchor="middle" font-family="Arial,sans-serif">Technic Ducati</text>
<rect x="310" y="246" width="82" height="22" fill="#fff" rx="4" ry="0" stroke="none" stroke-width="1"/>
<text x="351" y="262" font-size="10" fill="#333" font-weight="bold" text-anchor="middle" font-family="Arial,sans-serif">🧱 646 pcs</text>
<rect x="310" y="272" width="82" height="22" fill="#333" rx="4" ry="0" stroke="none" stroke-width="1"/>
<text x="351" y="288" font-size="10" fill="#FFD700" font-weight="bold" text-anchor="middle" font-family="Arial,sans-serif">Age 10++</text>
</svg>