<svg xmlns="http://www.w3.org/2000/svg" viewBox="0 0 400 300" width="400" height="300">
  <defs>
    <linearGradient id="bg18" x1="0%" y1="0%" x2="0%" y2="100%"><stop offset="0%" stop-color="#C8E6C9" stop-opacity="1"/><stop offset="60%" stop-color="#A5D6A7" stop-opacity="1"/><stop offset="60%" stop-color="#DCEDC8" stop-opacity="1"/><stop offset="100%" stop-color="#C8E6C9" stop-opacity="1"/></linearGradient>
  </defs>
  <rect x="0" y="0" width="400" height="300" fill="url(#bg18)" rx="0" ry="0" stroke="none" stroke-width="1"/>
  <rect x="50" y="100" width="150" height="120" fill="#E8F5E9" rx="3" ry="0" stroke="none" stroke-width="1"/>
<polygon points="45,100 125.0,80 205,100" fill="#81C784" stroke="none" stroke-width="1"/>
<rect x="58" y="110" width="14" height="14" fill="#AED6F1" rx="2" ry="0" stroke="none" stroke-width="1"/>
<rect x="58" y="130" width="14" height="14" fill="#AED6F1" rx="2" ry="0" stroke="none" stroke-width="1"/>
<rect x="180" y="110" width="14" height="14" fill="#AED6F1" rx="2" ry="0" stroke="none" stroke-width="1"/>
<rect x="180" y="130" width="14" height="14" fill="#AED6F1" rx="2" ry="0" stroke="none" stroke-width="1"/>
<rect x="118.0" y="196" width="14" height="24" fill="#784212" rx="2" ry="0" stroke="none" stroke-width="1"/>
  <rect x="70" y="92" width="110" height="16" fill="#2E7D32" rx="0" ry="0" stroke="none" stroke-width="1"/>
  <text x="125" y="104" font-size="10" fill="#FFF" font-weight="bold" text-anchor="middle" font-family="Arial,sans-serif">SANCTUARY</text>
  <rect x="247.2" y="130" width="5.6" height="14.0" fill="#5D4037" rx="0" ry="0" stroke="none" stroke-width="1"/><polygon points="250,109.0 237.4,133.5 262.6,133.5" fill="#2E7D32" stroke="none" stroke-width="1"/><polygon points="250,98.5 240.2,119.5 259.8,119.5" fill="#2E7D32" stroke="none" stroke-width="1"/>
  <rect x="282.2" y="130" width="5.6" height="14.0" fill="#5D4037" rx="0" ry="0" stroke="none" stroke-width="1"/><polygon points="285,109.0 272.4,133.5 297.6,133.5" fill="#2E7D32" stroke="none" stroke-width="1"/><polygon points="285,98.5 275.2,119.5 294.8,119.5" fill="#2E7D32" stroke="none" stroke-width="1"/>
  <rect x="317.2" y="130" width="5.6" height="14.0" fill="#5D4037" rx="0" ry="0" stroke="none" stroke-width="1"/><polygon points="320,109.0 307.4,133.5 332.6,133.5" fill="#2E7D32" stroke="none" stroke-width="1"/><polygon points="320,98.5 310.2,119.5 329.8,119.5" fill="#2E7D32" stroke="none" stroke-width="1"/>
  <rect x="352.2" y="130" width="5.6" height="14.0" fill="#5D4037" rx="0" ry="0" stroke="none" stroke-width="1"/><polygon points="355,109.0 342.4,133.5 367.6,133.5" fill="#2E7D32" stroke="none" stroke-width="1"/><polygon points="355,98.5 345.2,119.5 364.8,119.5" fill="#2E7D32" stroke="none" stroke-width="1"/>
  <circle cx="280" cy="215" r="12" fill="#FF8A65" stroke="none" stroke-width="1"/>
  <circle cx="310" cy="220" r="10" fill="#9E9E9E" stroke="none" stroke-width="1"/>
  <rect x="334.05" y="169.5" width="11.9" height="11.9" fill="#FFD700" rx="1.7" ry="0" stroke="none" stroke-width="1"/>
<circle cx="340" cy="171.2" r="1.7" fill="#000" stroke="none" stroke-width="1" opacity="0.4"/>
<rect x="336.6" y="181.4" width="6.8" height="5.1" fill="#FFD700" rx="0" ry="0" stroke="none" stroke-width="1"/>
<rect x="331.5" y="186.5" width="17.0" height="15.299999999999999" fill="#4CAF50" rx="1.7" ry="0" stroke="none" stroke-width="1"/>
<rect x="324.7" y="186.5" width="6.8" height="11.9" fill="#4CAF50" rx="1.7" ry="0" stroke="none" stroke-width="1"/>
<rect x="348.5" y="186.5" width="6.8" height="11.9" fill="#4CAF50" rx="1.7" ry="0" stroke="none" stroke-width="1"/>
<rect x="331.5" y="201.8" width="7.6499999999999995" height="11.9" fill="#3A3A3A" rx="1.7" ry="0" stroke="none" stroke-width="1"/>
<rect x="340.85" y="201.8" width="7.6499999999999995" height="11.9" fill="#3A3A3A" rx="1.7" ry="0" stroke="none" stroke-width="1"/>
  <circle cx="16.666666666666668" cy="12" r="5" fill="#fff" stroke="none" stroke-width="1" opacity="0.12"/><circle cx="50.0" cy="12" r="5" fill="#fff" stroke="none" stroke-width="1" opacity="0.12"/><circle cx="83.33333333333334" cy="12" r="5" fill="#fff" stroke="none" stroke-width="1" opacity="0.12"/><circle cx="116.66666666666667" cy="12" r="5" fill="#fff" stroke="none" stroke-width="1" opacity="0.12"/><circle cx="150.0" cy="12" r="5" fill="#fff" stroke="none" stroke-width="1" opacity="0.12"/><circle cx="183.33333333333334" cy="12" r="5" fill="#fff" stroke="none" stroke-width="1" opacity="0.12"/><circle cx="216.66666666666666" cy="12" r="5" fill="#fff" stroke="none" stroke-width="1" opacity="0.12"/><circle cx="250.0" cy="12" r="5" fill="#fff" stroke="none" stroke-width="1" opacity="0.12"/><circle cx="283.33333333333337" cy="12" r="5" fill="#fff" stroke="none" stroke-width="1" opacity="0.12"/><circle cx="316.6666666666667" cy="12" r="5" fill="#fff" stroke="none" stroke-width="1" opacity="0.12"/><circle cx="350.00000000000006" cy="12" r="5" fill="#fff" stroke="none" stroke-width="1" opacity="0.12"/><circle cx="383.33333333333337" cy="12" r="5" fill="#fff" stroke="none" stroke-width="1" opacity="0.12"/>
  <rect x="0" y="0" width="100" height="24" fill="#2E7D32" rx="0" ry="0" stroke="none" stroke-width="1"/><text x="50" y="17" font-size="10" fill="#fff" font-weight="900" text-anchor="middle" font-family="Arial,sans-serif">FRIENDS</text>
  <rect x="0" y="240" width="400" height="60" fill="#FFD700" rx="0" ry="0" stroke="none" stroke-width="1"/>
<rect x="0" y="240" width="70" height="60" fill="#E3000B" rx="0" ry="0" stroke="none" stroke-width="1"/>
<text x="35" y="276" font-size="11" fill="#fff" font-weight="900" text-anchor="middle" font-family="Arial,sans-serif">LEGO®</text>
<text x="225" y="265" font-size="13" fill="#000" font-weight="bold" text-anchor="middle" font-family="Arial,sans-serif">Friends Animal Sanctuary</text>
<rect x="310" y="246" width="82" height="22" fill="#fff" rx="4" ry="0" stroke="none" stroke-width="1"/>
<text x="351" y="262" font-size="10" fill="#333" font-weight="bold" text-anchor="middle" font-family="Arial,sans-serif">🧱 631 pcs</text>
<rect x="310" y="272" width="82" height="22" fill="#333" rx="4" ry="0" stroke="none" stroke-width="1"/>
<text x="351" y="288" font-size="10" fill="#FFD700" font-weight="bold" text-anchor="middle" font-family="Arial,sans-serif">Age 8++</text>
</svg>