<svg xmlns="http://www.w3.org/2000/svg" viewBox="0 0 400 300" width="400" height="300">
  <defs>
    <linearGradient id="bg7" x1="0%" y1="0%" x2="0%" y2="100%"><stop offset="0%" stop-color="#795548" stop-opacity="1"/><stop offset="100%" stop-color="#4E342E" stop-opacity="1"/></linearGradient>
  </defs>
  <rect x="0" y="0" width="400" height="300" fill="url(#bg7)" rx="0" ry="0" stroke="none" stroke-width="1"/>
  <rect x="0" y="220" width="400" height="80" fill="#3E2723" rx="0" ry="0" stroke="none" stroke-width="1"/>
  <rect x="80" y="170" width="140" height="50" fill="#F57F17" rx="4" ry="0" stroke="none" stroke-width="1"/>
  <rect x="100" y="145" width="80" height="30" fill="#F9A825" rx="3" ry="0" stroke="none" stroke-width="1"/>
  <rect x="110" y="148" width="40" height="25" fill="#AED6F1" rx="2" ry="0" stroke="none" stroke-width="1"/><rect x="129.0" y="148" width="2" height="25" fill="#8ab" rx="0" ry="0" stroke="none" stroke-width="1" opacity="0.6"/><rect x="110" y="159.5" width="40" height="2" fill="#8ab" rx="0" ry="0" stroke="none" stroke-width="1" opacity="0.6"/>
  <rect x="50" y="215" width="200" height="18" fill="#333" rx="6" ry="0" stroke="none" stroke-width="1"/>
  <circle cx="65" cy="224" r="7" fill="#222" stroke="none" stroke-width="1"/>
  <circle cx="83" cy="224" r="7" fill="#222" stroke="none" stroke-width="1"/>
  <circle cx="101" cy="224" r="7" fill="#222" stroke="none" stroke-width="1"/>
  <circle cx="119" cy="224" r="7" fill="#222" stroke="none" stroke-width="1"/>
  <circle cx="137" cy="224" r="7" fill="#222" stroke="none" stroke-width="1"/>
  <circle cx="155" cy="224" r="7" fill="#222" stroke="none" stroke-width="1"/>
  <circle cx="173" cy="224" r="7" fill="#222" stroke="none" stroke-width="1"/>
  <circle cx="191" cy="224" r="7" fill="#222" stroke="none" stroke-width="1"/>
  <circle cx="209" cy="224" r="7" fill="#222" stroke="none" stroke-width="1"/>
  <circle cx="227" cy="224" r="7" fill="#222" stroke="none" stroke-width="1"/>
  <rect x="200" y="100" width="20" height="80" fill="#F57F17" rx="3" ry="0" stroke="none" stroke-width="1"/>
  <rect x="215" y="145" width="60" height="15" fill="#F57F17" rx="3" ry="0" stroke="none" stroke-width="1"/>
  <polygon points="275,155 310,155 310,180 290,185 275,180" fill="#E65100" stroke="none" stroke-width="1"/>
  <circle cx="16.666666666666668" cy="12" r="5" fill="#fff" stroke="none" stroke-width="1" opacity="0.12"/><circle cx="50.0" cy="12" r="5" fill="#fff" stroke="none" stroke-width="1" opacity="0.12"/><circle cx="83.33333333333334" cy="12" r="5" fill="#fff" stroke="none" stroke-width="1" opacity="0.12"/><circle cx="116.66666666666667" cy="12" r="5" fill="#fff" stroke="none" stroke-width="1" opacity="0.12"/><circle cx="150.0" cy="12" r="5" fill="#fff" stroke="none" stroke-width="1" opacity="0.12"/><circle cx="183.33333333333334" cy="12" r="5" fill="#fff" stroke="none" stroke-width="1" opacity="0.12"/><circle cx="216.66666666666666" cy="12" r="5" fill="#fff" stroke="none" stroke-width="1" opacity="0.12"/><circle cx="250.0" cy="12" r="5" fill="#fff" stroke="none" stroke-width="1" opacity="0.12"/><circle cx="283.33333333333337" cy="12" r="5" fill="#fff" stroke="none" stroke-width="1" opacity="0.12"/><circle cx="316.6666666666667" cy="12" r="5" fill="#fff" stroke="none" stroke-width="1" opacity="0.12"/><circle cx="350.00000000000006" cy="12" r="5" fill="#fff" stroke="none" stroke-width="1" opacity="0.12"/><circle cx="383.33333333333337" cy="12" r="5" fill="#fff" stroke="none" stroke-width="1" opacity="0.12"/>
  <rect x="0" y="0" width="100" height="24" fill="#F57F17" rx="0" ry="0" stroke="none" stroke-width="1"/><text x="50" y="17" font-size="10" fill="#fff" font-weight="900" text-anchor="middle" font-family="Arial,sans-serif">TECHNIC</text>
  <rect x="0" y="240" width="400" height="60" fill="#FFD700" rx="0" ry="0" stroke="none" stroke-width="1"/>
<rect x="0" y="240" width="70" height="60" fill="#E3000B" rx="0" ry="0" stroke="none" stroke-width="1"/>
<text x="35" y="276" font-size="11" fill="#fff" font-weight="900" text-anchor="middle" font-family="Arial,sans-serif">LEGO®</text>
<text x="225" y="265" font-size="13" fill="#000" font-weight="bold" text-anchor="middle" font-family="Arial,sans-serif">Technic CAT Excavator</text>
<rect x="310" y="246" width="82" height="22" fill="#fff" rx="4" ry="0" stroke="none" stroke-width="1"/>
<text x="351" y="262" font-size="10" fill="#333" font-weight="bold" text-anchor="middle" font-family="Arial,sans-serif">🧱 2032 pcs</text>
<rect x="310" y="272" width="82" height="22" fill="#333" rx="4" ry="0" stroke="none" stroke-width="1"/>
<text x="351" y="288" font-size="10" fill="#FFD700" font-weight="bold" text-anchor="middle" font-family="Arial,sans-serif">Age 12++</text>
</svg>